<svg width="23" height="25" viewBox="0 0 23 25" fill="none" xmlns="http://www.w3.org/2000/svg">
<g id="Dog print">
<path id="Vector" d="M10.1918 22.2293C8.70602 21.5453 7.0219 20.2982 5.28173 19.1423C4.29385 18.4864 3.35752 17.7674 2.63711 16.8193C1.89316 15.8405 1.82688 14.9631 2.39181 14.0847C2.92652 13.2535 3.85998 12.8888 4.99746 13.1219C6.14644 13.3576 7.26005 13.3905 8.42138 13.1129C10.3656 12.6477 12.1362 13.9951 12.2154 15.9608C12.2597 17.0594 12.8775 17.8458 13.4852 18.6606C13.9689 19.3092 14.2635 19.9987 14.0562 20.8149C13.624 22.5112 12.516 23.0198 10.1918 22.2293Z" fill="white"/>
<path id="Vector_2" d="M14.0572 6.97846C13.7061 7.87238 13.2875 8.72223 12.513 9.34408C11.4104 10.2293 10.2477 10.0213 9.52625 8.81079C8.30174 6.75591 8.97863 4.32929 11.057 3.32052C12.6691 2.53841 13.9604 3.19566 14.2502 4.94311C14.3665 5.64111 14.2564 6.31368 14.0572 6.97846Z" fill="white"/>
<path id="Vector_3" d="M13.763 9.14316C14.3619 7.91685 15.2117 6.65396 16.7991 6.11288C18.3736 5.57633 19.5243 6.38894 19.5951 8.04295C19.6985 10.4514 17.6116 12.3574 15.1937 12.064C13.7905 11.8938 13.184 10.79 13.763 9.14316Z" fill="white"/>
<path id="Vector_4" d="M8.08551 9.93151C7.63093 11.2369 6.75205 12.0905 5.32961 12.2709C3.77889 12.4675 2.56691 11.1151 3.01873 9.64888C3.46518 8.20046 4.41064 7.08912 5.78406 6.39626C6.74266 5.91268 7.42551 6.17389 7.90918 7.14152C8.35994 8.04346 8.42363 8.97964 8.08551 9.93151Z" fill="white"/>
<path id="Vector_5" d="M18.7569 16.4603C18.4365 17.32 17.8285 18.3306 16.7137 18.9369C15.6555 19.5126 14.8218 19.1739 14.4572 18.0181C14.0448 16.713 14.1648 15.4306 14.8459 14.2594C15.442 13.2345 17.2475 12.7495 18.2898 13.249C19.1278 13.6499 19.3428 14.7636 18.7569 16.4603Z" fill="white"/>
</g>
</svg>
