<svg width="23" height="25" viewBox="0 0 23 25" fill="none" xmlns="http://www.w3.org/2000/svg">
<g id="Dog print">
<path id="Vector" d="M10.6229 22.2291C9.13717 21.5452 7.45305 20.298 5.71288 19.1422C4.725 18.4863 3.78867 17.7673 3.06827 16.8191C2.32431 15.8404 2.25803 14.9629 2.82297 14.0846C3.35767 13.2534 4.29113 12.8886 5.42862 13.1218C6.57759 13.3574 7.6912 13.3904 8.85253 13.1128C10.7967 12.6476 12.5674 13.9949 12.6465 15.9607C12.6908 17.0592 13.3086 17.8457 13.9164 18.6605C14.4 19.3091 14.6947 19.9986 14.4873 20.8148C14.0552 22.5111 12.9471 23.0197 10.6229 22.2291Z" fill="white"/>
<path id="Vector_2" d="M14.4883 6.97833C14.1373 7.87226 13.7187 8.72211 12.9441 9.34395C11.8415 10.2292 10.6789 10.0211 9.95741 8.81067C8.73289 6.75579 9.40978 4.32917 11.4882 3.3204C13.1003 2.53829 14.3915 3.19554 14.6814 4.94298C14.7976 5.64099 14.6875 6.31355 14.4883 6.97833Z" fill="white"/>
<path id="Vector_3" d="M14.1951 9.14304C14.7941 7.91673 15.6438 6.65384 17.2312 6.11276C18.8058 5.57621 19.9564 6.38882 20.0272 8.04283C20.1306 10.4513 18.0437 12.3573 15.6258 12.0639C14.2226 11.8937 13.6161 10.7898 14.1951 9.14304Z" fill="white"/>
<path id="Vector_4" d="M8.51666 9.93138C8.06208 11.2368 7.1832 12.0904 5.76076 12.2708C4.21004 12.4674 2.99806 11.115 3.44989 9.64876C3.89633 8.20033 4.84179 7.089 6.21522 6.39614C7.17382 5.91256 7.85667 6.17376 8.34033 7.1414C8.79109 8.04334 8.85479 8.97952 8.51666 9.93138Z" fill="white"/>
<path id="Vector_5" d="M19.1881 16.4601C18.8677 17.3199 18.2597 18.3304 17.1448 18.9368C16.0866 19.5125 15.253 19.1738 14.8883 18.0179C14.476 16.7129 14.5959 15.4305 15.2771 14.2592C15.8732 13.2344 17.6787 12.7494 18.7209 13.2489C19.5589 13.6498 19.7739 14.7635 19.1881 16.4601Z" fill="white"/>
</g>
</svg>
